<svg aria-hidden="true" style="position: absolute; width: 0; height: 0; overflow: hidden;" version="1.1" xmlns="http://www.w3.org/2000/svg" xmlns:xlink="http://www.w3.org/1999/xlink">
<defs>
<symbol id="icon-plus" viewBox="0 0 64 64">
<path d="M62 24h-22v-22c0-1.105-0.895-2-2-2h-12c-1.105 0-2 0.895-2 2v22h-22c-1.105 0-2 0.895-2 2v12c0 1.105 0.895 2 2 2h22v22c0 1.105 0.895 2 2 2h12c1.105 0 2-0.895 2-2v-22h22c1.105 0 2-0.895 2-2v-12c0-1.105-0.895-2-2-2z"></path>
</symbol>
<symbol id="icon-checkbox-checked" viewBox="0 0 64 64">
<path d="M56 0h-48c-4.4 0-8 3.6-8 8v48c0 4.4 3.6 8 8 8h48c4.4 0 8-3.6 8-8v-48c0-4.4-3.6-8-8-8zM28 49.657l-14.828-14.828 5.657-5.657 9.171 9.171 19.172-19.172 5.657 5.657-24.828 24.828z"></path>
</symbol>
<symbol id="icon-checkbox-unchecked" viewBox="0 0 64 64">
<path d="M56 0h-48c-4.4 0-8 3.6-8 8v48c0 4.4 3.6 8 8 8h48c4.4 0 8-3.6 8-8v-48c0-4.4-3.6-8-8-8zM56 56h-48v-48h48v48z"></path>
</symbol>
</defs>
</svg>
